<mxfile host="app.diagrams.net" agent="Mozilla/5.0 (Windows NT 10.0; Win64; x64) AppleWebKit/537.36 (KHTML, like Gecko) Chrome/140.0.0.0 Safari/537.36" version="28.2.3">
  <diagram name="PÃ¡gina-1" id="Z4j2P906KABmRTIoGmCq">
    <mxGraphModel dx="1426" dy="785" grid="1" gridSize="10" guides="1" tooltips="1" connect="1" arrows="1" fold="1" page="1" pageScale="1" pageWidth="827" pageHeight="1169" math="0" shadow="0">
      <root>
        <mxCell id="0" />
        <mxCell id="1" parent="0" />
        <mxCell id="Anv6U529fHGK39vZuUTZ-1" value="&lt;p style=&quot;margin:0px;margin-top:4px;text-align:center;&quot;&gt;&lt;i&gt;&amp;lt;&amp;lt;AggregateRoot&amp;gt;&amp;gt;&lt;/i&gt;&lt;br&gt;&lt;b&gt;Courier&lt;/b&gt;&lt;/p&gt;&lt;hr size=&quot;1&quot; style=&quot;border-style:solid;&quot;&gt;&lt;p style=&quot;margin:0px;margin-left:4px;&quot;&gt;- id: UUID&lt;br&gt;- name: String&lt;/p&gt;&lt;p style=&quot;margin:0px;margin-left:4px;&quot;&gt;-phone: String&lt;/p&gt;&lt;p style=&quot;margin:0px;margin-left:4px;&quot;&gt;- fullfiledDeliveriesQuantity: Integer&lt;/p&gt;&lt;p style=&quot;margin:0px;margin-left:4px;&quot;&gt;- pendingDeliveriesQuantity: Integer&lt;/p&gt;&lt;p style=&quot;margin:0px;margin-left:4px;&quot;&gt;- lastFullfiledDeliveredAt: OffsetDateTime&lt;/p&gt;&lt;hr size=&quot;1&quot; style=&quot;border-style:solid;&quot;&gt;&lt;p style=&quot;margin:0px;margin-left:4px;&quot;&gt;+ assign(deliveryId: UUID)&lt;br&gt;+ fullfill(deliveryId: UUID)&lt;/p&gt;&lt;p style=&quot;margin:0px;margin-left:4px;&quot;&gt;+ brandNew(name, phone): Courier&lt;/p&gt;" style="verticalAlign=top;align=left;overflow=fill;html=1;whiteSpace=wrap;" vertex="1" parent="1">
          <mxGeometry x="300" y="140" width="250" height="200" as="geometry" />
        </mxCell>
        <mxCell id="Anv6U529fHGK39vZuUTZ-2" value="&lt;p style=&quot;margin:0px;margin-top:4px;text-align:center;&quot;&gt;&lt;i&gt;&amp;lt;&amp;lt;Entity&amp;gt;&amp;gt;&lt;/i&gt;&lt;br&gt;&lt;b&gt;AssignedDelivery&lt;/b&gt;&lt;/p&gt;&lt;hr size=&quot;1&quot; style=&quot;border-style:solid;&quot;&gt;&lt;p style=&quot;margin:0px;margin-left:4px;&quot;&gt;- id: UUID&lt;br&gt;- assignedAt: OffsetDateTime&lt;/p&gt;&lt;hr size=&quot;1&quot; style=&quot;border-style:solid;&quot;&gt;&lt;p style=&quot;margin:0px;margin-left:4px;&quot;&gt;&lt;br&gt;&lt;/p&gt;" style="verticalAlign=top;align=left;overflow=fill;html=1;whiteSpace=wrap;" vertex="1" parent="1">
          <mxGeometry x="319" y="420" width="190" height="100" as="geometry" />
        </mxCell>
        <mxCell id="Anv6U529fHGK39vZuUTZ-3" value="" style="endArrow=open;html=1;endSize=12;startArrow=diamondThin;startSize=14;startFill=1;edgeStyle=orthogonalEdgeStyle;align=left;verticalAlign=bottom;rounded=0;exitX=0.448;exitY=0.99;exitDx=0;exitDy=0;exitPerimeter=0;entryX=0.5;entryY=0;entryDx=0;entryDy=0;" edge="1" parent="1" source="Anv6U529fHGK39vZuUTZ-1" target="Anv6U529fHGK39vZuUTZ-2">
          <mxGeometry x="-1" y="3" relative="1" as="geometry">
            <mxPoint x="330" y="410" as="sourcePoint" />
            <mxPoint x="490" y="410" as="targetPoint" />
          </mxGeometry>
        </mxCell>
        <mxCell id="Anv6U529fHGK39vZuUTZ-4" value="- pendingDeliveries" style="edgeLabel;html=1;align=center;verticalAlign=middle;resizable=0;points=[];" vertex="1" connectable="0" parent="Anv6U529fHGK39vZuUTZ-3">
          <mxGeometry x="0.5556" y="2" relative="1" as="geometry">
            <mxPoint x="54" y="2" as="offset" />
          </mxGeometry>
        </mxCell>
      </root>
    </mxGraphModel>
  </diagram>
</mxfile>
